# xmcd CD database file
#
# Track frame offsets:
#	150
#	13884
#	37196
#	65861
#	87830
#	107862
#	132751
#	153598
#	170478
#	196440
#	214379
#	242121
#
# Disc length: 3808 seconds
#
# Revision: 1
# Processed by: cddbd v1.4PL0 Copyright (c) Steve Scherf et al.
# Submitted via: CDex 1.50
#
DISCID=b50ede0c
DTITLE=Chet Baker and Stan Getz - West Cost Live - Disc 1
DYEAR=1900
DGENRE=Jazz
TTITLE0=My Funny Valentine
TTITLE1=Strike Up The Band
TTITLE2=The Way You Look Tonight
TTITLE3=Yardbird Suite
TTITLE4=Yesterdays
TTITLE5=Winter Wonderland
TTITLE6=Come Out Wherever You Are
TTITLE7=Move
TTITLE8=What's New
TTITLE9=Half Nelson
TTITLE10=Little Willie Leaps
TTITLE11=Whispering
EXTD=
EXTT0=
EXTT1=
EXTT2=
EXTT3=
EXTT4=
EXTT5=
EXTT6=
EXTT7=
EXTT8=
EXTT9=
EXTT10=
EXTT11=
PLAYORDER=
